# xmcd
#
# Track frame offsets:
#	150
#	17758
#	37572
#	54331
#	70512
#	93057
#	107875
#	127535
#	146388
#	162385
#
# Disc length: 2383 seconds
# Revision: 0
# Processed by: cddbd v1.5.2PL0 Copyright (c) Steve Scherf et al.
# Submitted via: dBpowerAMP V12.0
#
DISCID=69094d0a
DTITLE=RB Stone - Lonesome Traveler's Blues
DYEAR=2010
DGENRE=Blues
TTITLE0=Mississippi Woman
TTITLE1=Lonesome Traveler's Blues
TTITLE2=Fairweather Friends
TTITLE3=Ain't Gonna Bring Me Down
TTITLE4=Born Into The Blues
TTITLE5=The Devil's Satisfied
TTITLE6=Master Of The Craft
TTITLE7=Find Yourself A Fool
TTITLE8=Man With A Minivan
TTITLE9=Don't Be Mean
EXTD=
EXTT0=
EXTT1=
EXTT2=
EXTT3=
EXTT4=
EXTT5=
EXTT6=
EXTT7=
EXTT8=
EXTT9=
PLAYORDER=
